<mxfile host="app.diagrams.net" modified="2022-03-10T02:56:27.731Z" agent="5.0 (Macintosh; Intel Mac OS X 10_15_7) AppleWebKit/537.36 (KHTML, like Gecko) Chrome/99.0.4844.51 Safari/537.36" etag="T1ho5SaHl09Y9hYm4tht" version="16.6.4" type="github">
  <diagram id="vKHvg1sBYMyZX13Gya5x" name="Page-1">
    <mxGraphModel dx="1346" dy="591" grid="1" gridSize="10" guides="1" tooltips="1" connect="1" arrows="1" fold="1" page="1" pageScale="1" pageWidth="827" pageHeight="1169" math="0" shadow="0">
      <root>
        <mxCell id="0" />
        <mxCell id="1" parent="0" />
        <mxCell id="NpelcRKtQPulKm6rQKc4-9" value="" style="whiteSpace=wrap;html=1;aspect=fixed;fillColor=#FFFFFF;" vertex="1" parent="1">
          <mxGeometry x="730" y="90" width="660" height="660" as="geometry" />
        </mxCell>
        <mxCell id="NpelcRKtQPulKm6rQKc4-1" value="55" style="rounded=0;whiteSpace=wrap;html=1;fillColor=#D5E8D4;" vertex="1" parent="1">
          <mxGeometry x="250" y="230" width="120" height="60" as="geometry" />
        </mxCell>
        <mxCell id="NpelcRKtQPulKm6rQKc4-2" value="48 89 e5" style="rounded=0;whiteSpace=wrap;html=1;fillColor=#67AB9F;" vertex="1" parent="1">
          <mxGeometry x="370" y="230" width="120" height="60" as="geometry" />
        </mxCell>
        <mxCell id="NpelcRKtQPulKm6rQKc4-3" value="48 83 ec 10" style="rounded=0;whiteSpace=wrap;html=1;fillColor=#B9E0A5;" vertex="1" parent="1">
          <mxGeometry x="490" y="230" width="120" height="60" as="geometry" />
        </mxCell>
        <mxCell id="NpelcRKtQPulKm6rQKc4-4" value="6fb" style="text;html=1;strokeColor=none;fillColor=none;align=center;verticalAlign=middle;whiteSpace=wrap;rounded=0;" vertex="1" parent="1">
          <mxGeometry x="280" y="310" width="60" height="30" as="geometry" />
        </mxCell>
        <mxCell id="NpelcRKtQPulKm6rQKc4-5" value="6fc" style="text;html=1;strokeColor=none;fillColor=none;align=center;verticalAlign=middle;whiteSpace=wrap;rounded=0;" vertex="1" parent="1">
          <mxGeometry x="400" y="310" width="60" height="30" as="geometry" />
        </mxCell>
        <mxCell id="NpelcRKtQPulKm6rQKc4-6" value="6ff" style="text;html=1;strokeColor=none;fillColor=none;align=center;verticalAlign=middle;whiteSpace=wrap;rounded=0;" vertex="1" parent="1">
          <mxGeometry x="520" y="310" width="60" height="30" as="geometry" />
        </mxCell>
        <mxCell id="NpelcRKtQPulKm6rQKc4-7" value="实际的指令地址" style="text;html=1;strokeColor=none;fillColor=none;align=center;verticalAlign=middle;whiteSpace=wrap;rounded=0;" vertex="1" parent="1">
          <mxGeometry x="140" y="310" width="90" height="20" as="geometry" />
        </mxCell>
        <mxCell id="NpelcRKtQPulKm6rQKc4-8" value="对应的指令" style="text;html=1;strokeColor=none;fillColor=none;align=center;verticalAlign=middle;whiteSpace=wrap;rounded=0;" vertex="1" parent="1">
          <mxGeometry x="140" y="250" width="90" height="20" as="geometry" />
        </mxCell>
        <mxCell id="NpelcRKtQPulKm6rQKc4-15" style="edgeStyle=orthogonalEdgeStyle;rounded=0;orthogonalLoop=1;jettySize=auto;html=1;entryX=1;entryY=0.5;entryDx=0;entryDy=0;" edge="1" parent="1" source="NpelcRKtQPulKm6rQKc4-10" target="NpelcRKtQPulKm6rQKc4-14">
          <mxGeometry relative="1" as="geometry" />
        </mxCell>
        <mxCell id="NpelcRKtQPulKm6rQKc4-10" value="rip" style="rounded=0;whiteSpace=wrap;html=1;fillColor=#E0DACA;" vertex="1" parent="1">
          <mxGeometry x="1090" y="460" width="90" height="30" as="geometry" />
        </mxCell>
        <mxCell id="NpelcRKtQPulKm6rQKc4-11" value="" style="rounded=0;whiteSpace=wrap;html=1;fillColor=#FFFFFF;" vertex="1" parent="1">
          <mxGeometry x="827" y="150" width="83" height="450" as="geometry" />
        </mxCell>
        <mxCell id="NpelcRKtQPulKm6rQKc4-13" style="edgeStyle=orthogonalEdgeStyle;rounded=0;orthogonalLoop=1;jettySize=auto;html=1;entryX=0.5;entryY=0;entryDx=0;entryDy=0;" edge="1" parent="1" source="NpelcRKtQPulKm6rQKc4-12" target="NpelcRKtQPulKm6rQKc4-10">
          <mxGeometry relative="1" as="geometry" />
        </mxCell>
        <mxCell id="NpelcRKtQPulKm6rQKc4-12" value="CPU" style="rounded=0;whiteSpace=wrap;html=1;fillColor=#D4E1F5;" vertex="1" parent="1">
          <mxGeometry x="1090" y="310" width="90" height="80" as="geometry" />
        </mxCell>
        <mxCell id="NpelcRKtQPulKm6rQKc4-25" style="edgeStyle=orthogonalEdgeStyle;rounded=0;orthogonalLoop=1;jettySize=auto;html=1;entryX=0;entryY=0.5;entryDx=0;entryDy=0;" edge="1" parent="1" source="NpelcRKtQPulKm6rQKc4-14" target="NpelcRKtQPulKm6rQKc4-21">
          <mxGeometry relative="1" as="geometry">
            <Array as="points">
              <mxPoint x="869" y="570" />
              <mxPoint x="965" y="570" />
              <mxPoint x="965" y="603" />
            </Array>
          </mxGeometry>
        </mxCell>
        <mxCell id="NpelcRKtQPulKm6rQKc4-26" value="转译" style="edgeLabel;html=1;align=center;verticalAlign=middle;resizable=0;points=[];" vertex="1" connectable="0" parent="NpelcRKtQPulKm6rQKc4-25">
          <mxGeometry x="-0.0343" relative="1" as="geometry">
            <mxPoint as="offset" />
          </mxGeometry>
        </mxCell>
        <mxCell id="NpelcRKtQPulKm6rQKc4-14" value="55" style="rounded=0;whiteSpace=wrap;html=1;fillColor=#FFF2CC;" vertex="1" parent="1">
          <mxGeometry x="827" y="520" width="83" height="30" as="geometry" />
        </mxCell>
        <mxCell id="NpelcRKtQPulKm6rQKc4-16" value="程序计数器存储的寄存器" style="text;html=1;strokeColor=none;fillColor=none;align=center;verticalAlign=middle;whiteSpace=wrap;rounded=0;" vertex="1" parent="1">
          <mxGeometry x="1170" y="420" width="170" height="30" as="geometry" />
        </mxCell>
        <mxCell id="NpelcRKtQPulKm6rQKc4-17" value="rip内部就是指令的地址：00001010101101" style="text;html=1;strokeColor=none;fillColor=none;align=center;verticalAlign=middle;whiteSpace=wrap;rounded=0;" vertex="1" parent="1">
          <mxGeometry x="1072" y="500" width="169" height="30" as="geometry" />
        </mxCell>
        <mxCell id="NpelcRKtQPulKm6rQKc4-18" value="通过mmu到内存地址" style="text;html=1;strokeColor=none;fillColor=none;align=center;verticalAlign=middle;whiteSpace=wrap;rounded=0;" vertex="1" parent="1">
          <mxGeometry x="921" y="440" width="169" height="30" as="geometry" />
        </mxCell>
        <mxCell id="NpelcRKtQPulKm6rQKc4-20" value="&lt;span&gt;00001010101101&lt;/span&gt;" style="text;html=1;align=center;verticalAlign=middle;resizable=0;points=[];autosize=1;strokeColor=none;fillColor=none;" vertex="1" parent="1">
          <mxGeometry x="820" y="490" width="110" height="20" as="geometry" />
        </mxCell>
        <mxCell id="NpelcRKtQPulKm6rQKc4-21" value="mov %rax %rbx" style="rounded=0;whiteSpace=wrap;html=1;fillColor=#E1D5E7;" vertex="1" parent="1">
          <mxGeometry x="1020" y="585" width="130" height="35" as="geometry" />
        </mxCell>
        <mxCell id="NpelcRKtQPulKm6rQKc4-27" value="实际的指令" style="text;html=1;align=center;verticalAlign=middle;resizable=0;points=[];autosize=1;strokeColor=none;fillColor=none;" vertex="1" parent="1">
          <mxGeometry x="1045" y="620" width="80" height="20" as="geometry" />
        </mxCell>
      </root>
    </mxGraphModel>
  </diagram>
</mxfile>
